<svg width="160" height="160" viewBox="0 0 160 160" fill="none" xmlns="http://www.w3.org/2000/svg">
<g filter="url(#filter0_d_1525_7047)">
<circle cx="80" cy="64" r="24" fill="#F7F6FE"/>
</g>
<path fill-rule="evenodd" clip-rule="evenodd" d="M76.66 65.07C76.81 65.07 76.95 65.06 77.09 65.04C77.56 66.19 78.69 67 80 67C81.31 67 82.44 66.19 82.91 65.04C83.05 65.06 83.2 65.07 83.34 65.07C85.07 65.07 86.48 63.66 86.48 61.93C86.48 61.22 86.23 60.54 85.81 60C86.24 59.46 86.48 58.78 86.48 58.07C86.48 56.34 85.07 54.93 83.34 54.93C83.19 54.93 83.05 54.94 82.91 54.96C82.44 53.81 81.31 53 80 53C78.69 53 77.56 53.81 77.09 54.96C76.95 54.94 76.8 54.93 76.66 54.93C74.93 54.93 73.52 56.34 73.52 58.07C73.52 58.78 73.77 59.46 74.19 60C73.76 60.54 73.51 61.22 73.51 61.93C73.51 63.66 74.92 65.07 76.66 65.07ZM80 65C79.38 65 78.88 64.51 78.86 63.9L78.98 62.81C79.3 62.93 79.64 63 80 63C80.36 63 80.71 62.93 81.03 62.81L81.14 63.9C81.12 64.51 80.62 65 80 65ZM83.34 63.07C83.1 63.07 82.88 63 82.7 62.87L81.89 62.3C82.44 61.85 82.83 61.21 82.95 60.47L83.83 60.89C84.23 61.08 84.49 61.48 84.49 61.92C84.49 62.56 83.97 63.07 83.34 63.07ZM82.69 57.13C82.89 57 83.11 56.93 83.34 56.93C83.97 56.93 84.48 57.44 84.48 58.07C84.48 58.51 84.23 58.9 83.82 59.1L82.94 59.52C82.82 58.78 82.43 58.14 81.87 57.69L82.69 57.13ZM80 55C80.62 55 81.12 55.49 81.14 56.1L81.03 57.19C80.71 57.07 80.36 57 80 57C79.64 57 79.3 57.07 78.98 57.19L78.86 56.1C78.88 55.49 79.38 55 80 55ZM76.66 56.93C76.9 56.93 77.12 57 77.3 57.13L78.11 57.69C77.56 58.14 77.17 58.78 77.05 59.52L76.17 59.1C75.77 58.9 75.51 58.51 75.51 58.07C75.51 57.44 76.03 56.93 76.66 56.93ZM76.17 60.9L77.05 60.48C77.17 61.22 77.56 61.86 78.12 62.31L77.31 62.86C77.11 62.99 76.89 63.06 76.66 63.06C76.03 63.06 75.52 62.55 75.52 61.92C75.51 61.49 75.77 61.1 76.17 60.9ZM80 74C84.97 74 89 69.97 89 65C84.03 65 80 69.03 80 74ZM82.44 71.56C83.15 69.66 84.66 68.14 86.56 67.44C85.85 69.34 84.34 70.85 82.44 71.56ZM71 65C71 69.97 75.03 74 80 74C80 69.03 75.97 65 71 65ZM73.44 67.44C75.34 68.15 76.86 69.66 77.56 71.56C75.66 70.85 74.15 69.34 73.44 67.44Z" fill="#FF652E"/>
<defs>
<filter id="filter0_d_1525_7047" x="0" y="0" width="160" height="160" filterUnits="userSpaceOnUse" color-interpolation-filters="sRGB">
<feFlood flood-opacity="0" result="BackgroundImageFix"/>
<feColorMatrix in="SourceAlpha" type="matrix" values="0 0 0 0 0 0 0 0 0 0 0 0 0 0 0 0 0 0 127 0" result="hardAlpha"/>
<feOffset dy="16"/>
<feGaussianBlur stdDeviation="28"/>
<feColorMatrix type="matrix" values="0 0 0 0 0.329412 0 0 0 0 0.498039 0 0 0 0 0.952941 0 0 0 0.4 0"/>
<feBlend mode="normal" in2="BackgroundImageFix" result="effect1_dropShadow_1525_7047"/>
<feBlend mode="normal" in="SourceGraphic" in2="effect1_dropShadow_1525_7047" result="shape"/>
</filter>
</defs>
</svg>
