<svg width="132" height="56" viewBox="0 0 132 56" fill="none" xmlns="http://www.w3.org/2000/svg">
<g clip-path="url(#clip0_1525_8419)">
<path d="M0 24.3354V29.2599C1.65275 29.2588 3.28951 29.5894 4.81662 30.233C6.34372 30.8766 7.73121 31.8204 8.89969 33.0106C10.0679 34.2002 10.9943 35.6127 11.626 37.1672C12.2577 38.7217 12.5823 40.3877 12.5812 42.0699H17.4144C17.41 37.3684 15.574 32.8607 12.3092 29.5359C9.04442 26.2111 4.61755 24.3408 0 24.3354H0Z" fill="#563AD6"/>
<path d="M24.1704 15.47H16.511C20.3857 17.9701 23.6689 21.3125 26.125 25.2574V17.4587C26.1246 16.9311 25.9185 16.4253 25.552 16.0524C25.1855 15.6794 24.6886 15.47 24.1704 15.47V15.47Z" fill="#563AD6"/>
<path d="M4.8125 15.47H0V19.9038C5.77208 19.9099 11.306 22.2472 15.3876 26.4028C19.4691 30.5584 21.7649 36.1929 21.7711 42.07H26.125V37.17C25.1406 31.7845 22.5775 26.8289 18.7732 22.9554C14.9689 19.082 10.1018 16.4723 4.8125 15.47V15.47Z" fill="#563AD6"/>
<path d="M37.9714 18.3981H34.9038V34.1411H37.9714V18.3981Z" fill="#563AD6"/>
<path d="M49.2504 25.2189C48.7397 24.7462 48.142 24.3814 47.4918 24.1458C46.0951 23.6464 44.573 23.6464 43.1764 24.1458C42.5259 24.3813 41.9279 24.746 41.4171 25.2189C40.9161 25.6891 40.5158 26.2596 40.2414 26.8947C39.9578 27.5874 39.8118 28.3305 39.8118 29.0811C39.8118 29.8317 39.9578 30.5748 40.2414 31.2676C40.5148 31.9044 40.9151 32.4765 41.4171 32.9476C41.927 33.4207 42.5247 33.7853 43.175 34.02C44.5715 34.5202 46.0939 34.5202 47.4904 34.02C48.1409 33.7853 48.7389 33.4207 49.2491 32.9476C49.7507 32.4763 50.151 31.9043 50.4247 31.2676C50.7083 30.5748 50.8543 29.8317 50.8543 29.0811C50.8543 28.3305 50.7083 27.5874 50.4247 26.8947C50.1505 26.2598 49.7508 25.6894 49.2504 25.2189ZM47.1439 30.9351C46.6472 31.3907 46.0023 31.6428 45.3337 31.6428C44.6652 31.6428 44.0203 31.3907 43.5236 30.9351C43.106 30.4103 42.8782 29.7554 42.8782 29.0801C42.8782 28.4047 43.106 27.7498 43.5236 27.2251C44.0203 26.7694 44.6652 26.5173 45.3337 26.5173C46.0023 26.5173 46.6472 26.7694 47.1439 27.2251C47.5614 27.7498 47.7893 28.4047 47.7893 29.0801C47.7893 29.7554 47.5614 30.4103 47.1439 30.9351V30.9351Z" fill="#563AD6"/>
<path d="M60.2635 25.354H60.225C60.0832 25.1512 59.9184 24.966 59.7342 24.8024C59.5109 24.6013 59.2638 24.4296 58.9985 24.2914C58.328 23.9411 57.5837 23.7625 56.8302 23.7713C56.1698 23.7595 55.5167 23.9133 54.9285 24.2193C54.3805 24.5082 53.8966 24.9087 53.5068 25.396C53.1093 25.8982 52.8044 26.4695 52.6068 27.0823C52.3967 27.7136 52.2897 28.3757 52.2899 29.0423C52.2822 29.7578 52.4 30.4689 52.6378 31.1423C52.8533 31.7567 53.1891 32.3202 53.625 32.7985C54.0593 33.2665 54.5864 33.6351 55.1712 33.88C55.8071 34.1439 56.4887 34.2748 57.1753 34.265C57.6832 34.256 58.1853 34.1538 58.6575 33.9633C59.1871 33.7587 59.6459 33.4002 59.9768 32.9322H60.0181V33.9122C60.0296 34.239 59.9767 34.5649 59.8625 34.8707C59.7483 35.1764 59.5752 35.4558 59.3533 35.6923C59.0717 35.9459 58.7425 36.1387 58.3857 36.259C58.0288 36.3794 57.6516 36.4247 57.277 36.3923C56.6831 36.399 56.0944 36.2783 55.5494 36.0381C55.007 35.7913 54.501 35.469 54.0458 35.0805L52.3483 37.66C53.0422 38.229 53.8532 38.6312 54.7209 38.8367C55.5796 39.0377 56.4578 39.1389 57.3389 39.1384C59.2749 39.1384 60.7166 38.6421 61.664 37.6495C62.6113 36.6569 63.0853 35.2027 63.0857 33.2871V24.0212H60.267L60.2635 25.354ZM60.0793 29.9663C59.9583 30.2626 59.7809 30.5316 59.5575 30.758C59.33 30.9888 59.0633 31.1757 58.7703 31.3096C58.4661 31.4471 58.1369 31.5182 57.804 31.5182C57.4711 31.5182 57.1419 31.4471 56.8377 31.3096C56.5486 31.1738 56.2854 30.987 56.0602 30.758C55.8357 30.5297 55.6577 30.2587 55.5362 29.9603C55.4148 29.6619 55.3522 29.3421 55.3522 29.0192C55.3522 28.6962 55.4148 28.3764 55.5362 28.078C55.6577 27.7797 55.8357 27.5086 56.0602 27.2804C56.2856 27.0513 56.5487 26.8643 56.8377 26.7281C57.1421 26.591 57.4712 26.5201 57.804 26.5201C58.1368 26.5201 58.4659 26.591 58.7703 26.7281C59.0632 26.8625 59.3298 27.0496 59.5575 27.2804C59.8949 27.6257 60.1246 28.065 60.2174 28.5429C60.3103 29.0209 60.2622 29.5161 60.0793 29.9663V29.9663Z" fill="#563AD6"/>
<path d="M74.6103 25.2189C74.0996 24.7462 73.5018 24.3814 72.8517 24.1458C71.455 23.6464 69.9329 23.6464 68.5362 24.1458C67.8858 24.3813 67.2877 24.746 66.7769 25.2189C66.2759 25.6891 65.8757 26.2596 65.6013 26.8947C65.3177 27.5874 65.1716 28.3305 65.1716 29.0811C65.1716 29.8317 65.3177 30.5748 65.6013 31.2676C65.8747 31.9044 66.275 32.4765 66.7769 32.9476C67.2873 33.4209 67.8854 33.7855 68.5362 34.02C69.9328 34.5202 71.4551 34.5202 72.8517 34.02C73.5022 33.7853 74.1001 33.4207 74.6103 32.9476C75.1122 32.4765 75.5125 31.9044 75.7859 31.2676C76.0695 30.5748 76.2156 29.8317 76.2156 29.0811C76.2156 28.3305 76.0695 27.5874 75.7859 26.8947C75.5115 26.2596 75.1113 25.6891 74.6103 25.2189V25.2189ZM72.5038 30.9351C72.007 31.3907 71.3622 31.6428 70.6936 31.6428C70.025 31.6428 69.3802 31.3907 68.8834 30.9351C68.4659 30.4103 68.2381 29.7554 68.2381 29.0801C68.2381 28.4047 68.4659 27.7498 68.8834 27.2251C69.3802 26.7694 70.025 26.5173 70.6936 26.5173C71.3622 26.5173 72.007 26.7694 72.5038 27.2251C72.9213 27.7498 73.1491 28.4047 73.1491 29.0801C73.1491 29.7554 72.9213 30.4103 72.5038 30.9351Z" fill="#563AD6"/>
<path d="M80.2848 24.0912H78.6396V34.1411H80.2848V24.0912Z" fill="#563AD6"/>
<path d="M79.4627 18.9377C79.3032 18.9346 79.1448 18.9655 78.9977 19.0283C78.8505 19.0911 78.7179 19.1844 78.6082 19.3024C78.4409 19.4741 78.3273 19.6924 78.2817 19.9298C78.2361 20.1671 78.2605 20.4129 78.3518 20.6362C78.4432 20.8594 78.5974 21.0502 78.795 21.1843C78.9926 21.3185 79.2249 21.3901 79.4624 21.3901C79.6999 21.3901 79.9322 21.3185 80.1298 21.1843C80.3274 21.0502 80.4816 20.8594 80.573 20.6362C80.6643 20.4129 80.6887 20.1671 80.6431 19.9298C80.5975 19.6924 80.4839 19.4741 80.3166 19.3024C80.2071 19.1844 80.0746 19.091 79.9275 19.0282C79.7805 18.9654 79.6222 18.9346 79.4627 18.9377V18.9377Z" fill="#563AD6"/>
<path d="M92.4544 25.3399C91.9916 24.8588 91.4349 24.4818 90.8202 24.2332C90.1456 23.9625 89.4258 23.8277 88.7007 23.8363C88.0176 23.8283 87.3422 23.983 86.7282 24.2878C86.1235 24.594 85.5883 25.0253 85.1566 25.5541H85.1126V24.0911H83.4695V39.0375H85.1126V32.3595H85.1545C85.5038 32.972 86.0128 33.474 86.6251 33.8099C87.336 34.2152 88.1405 34.4192 88.955 34.4007C89.6219 34.405 90.2825 34.2697 90.8959 34.0031C91.4881 33.7474 92.0227 33.371 92.4668 32.8971C92.9178 32.4129 93.2724 31.8443 93.5111 31.2227C94.0171 29.8668 94.0171 28.3689 93.5111 27.0129C93.2703 26.39 92.9112 25.8214 92.4544 25.3399V25.3399ZM91.8742 30.5899C91.7208 31.0275 91.4809 31.4284 91.1693 31.7678C90.8577 32.1072 90.4811 32.378 90.0626 32.5632C89.1374 32.949 88.1003 32.949 87.1751 32.5632C86.7561 32.378 86.3789 32.107 86.0669 31.7672C85.7549 31.4274 85.5148 31.026 85.3615 30.5878C85.0385 29.6354 85.0385 28.6002 85.3615 27.6478C85.5148 27.2097 85.7549 26.8082 86.0669 26.4684C86.3789 26.1286 86.7561 25.8577 87.1751 25.6724C88.1003 25.2866 89.1374 25.2866 90.0626 25.6724C90.4816 25.8577 90.8589 26.1286 91.1708 26.4684C91.4828 26.8082 91.7229 27.2097 91.8762 27.6478C92.1992 28.6002 92.1992 29.6354 91.8762 30.5878L91.8742 30.5899Z" fill="#563AD6"/>
<path d="M102.178 29.12C101.865 28.882 101.517 28.6971 101.146 28.5726C100.739 28.4328 100.324 28.3215 99.902 28.2394C99.5858 28.1844 99.2725 28.1129 98.9635 28.0252C98.6882 27.949 98.4199 27.8483 98.1619 27.7242C97.9553 27.6288 97.7685 27.4938 97.6119 27.3266C97.4786 27.1771 97.407 26.9811 97.4118 26.7792C97.4086 26.5614 97.4712 26.3478 97.5913 26.1674C97.7095 25.9892 97.864 25.8391 98.0443 25.7271C98.2373 25.6083 98.4475 25.5214 98.6672 25.4695C98.8922 25.4128 99.123 25.3839 99.3547 25.3834C99.7957 25.3694 100.231 25.4851 100.609 25.7166C100.951 25.9353 101.236 26.2332 101.443 26.586L102.814 25.6627C102.51 25.0524 102.016 24.5615 101.41 24.2662C100.8 23.9774 100.133 23.8308 99.4599 23.8371C99.0033 23.836 98.5489 23.9011 98.1103 24.0303C97.6899 24.1524 97.291 24.3414 96.9285 24.5903C96.5819 24.8286 96.2933 25.1444 96.085 25.5136C95.8692 25.9068 95.76 26.3513 95.7687 26.8016C95.7515 27.2424 95.8498 27.6799 96.0533 28.0693C96.2391 28.395 96.4983 28.6709 96.8096 28.8743C97.1532 29.095 97.5259 29.2649 97.9165 29.379C98.3386 29.5078 98.7816 29.6224 99.2454 29.7227C99.5131 29.7801 99.7732 29.8445 100.026 29.9159C100.263 29.9806 100.49 30.0782 100.701 30.2057C100.887 30.318 101.048 30.4679 101.175 30.646C101.302 30.8433 101.365 31.0762 101.355 31.3117C101.362 31.5592 101.296 31.8032 101.165 32.0117C101.034 32.2093 100.861 32.3744 100.659 32.4947C100.44 32.6274 100.201 32.7221 99.9521 32.7747C99.6992 32.8313 99.4411 32.8601 99.1821 32.8608C98.6696 32.881 98.1618 32.7544 97.7164 32.4954C97.3067 32.2299 96.9462 31.893 96.6515 31.5L95.3452 32.5311C95.7496 33.1705 96.3236 33.6802 97.0007 34.0011C97.6947 34.2816 98.4371 34.4168 99.1835 34.3987C99.6697 34.3991 100.154 34.3416 100.627 34.2272C101.077 34.1213 101.506 33.936 101.893 33.6798C102.263 33.4298 102.569 33.0939 102.787 32.6998C103.023 32.2525 103.139 31.75 103.125 31.2424C103.138 30.806 103.052 30.3725 102.872 29.9761C102.708 29.6401 102.471 29.3471 102.178 29.12V29.12Z" fill="#563AD6"/>
<path d="M114.03 31.7576V24.0912H112.385V28.9912C112.39 29.5195 112.33 30.0463 112.205 30.5592C112.1 30.9989 111.913 31.4141 111.655 31.7828C111.41 32.1255 111.084 32.399 110.706 32.5773C110.272 32.7737 109.8 32.8693 109.325 32.8573C109.003 32.8837 108.68 32.8312 108.383 32.7042C108.086 32.5771 107.823 32.3793 107.616 32.1272C107.221 31.5417 107.028 30.8394 107.066 30.1301V24.0912H105.421V30.2974C105.416 30.86 105.491 31.4204 105.643 31.9613C105.775 32.4409 106.01 32.8847 106.33 33.2612C106.651 33.6292 107.051 33.9167 107.499 34.1012C108.033 34.3134 108.603 34.4157 109.176 34.4022C109.561 34.4054 109.945 34.3509 110.315 34.2405C110.649 34.1415 110.968 33.9972 111.264 33.8114C111.533 33.6426 111.777 33.4367 111.991 33.1996C112.183 32.9886 112.343 32.7496 112.466 32.4905H112.508C112.508 32.7775 112.515 33.0575 112.529 33.3305C112.543 33.6035 112.55 33.8756 112.55 34.1467H114.111C114.111 33.8168 114.097 33.4516 114.069 33.0512C114.04 32.6508 114.027 32.2196 114.03 31.7576Z" fill="#563AD6"/>
<path d="M131.81 26.2926C131.7 25.8063 131.484 25.3516 131.177 24.9626C130.867 24.5862 130.468 24.297 130.017 24.1226C129.45 23.9141 128.849 23.8158 128.246 23.8328C127.591 23.8037 126.943 23.9799 126.389 24.3375C125.876 24.7122 125.446 25.1913 125.124 25.7445C125.04 25.5723 124.931 25.3754 124.797 25.1537C124.648 24.9144 124.459 24.7035 124.238 24.5307C123.967 24.321 123.666 24.1556 123.344 24.0407C122.913 23.893 122.459 23.8239 122.004 23.8363C121.619 23.8331 121.236 23.8876 120.866 23.998C120.532 24.097 120.213 24.2414 119.917 24.4271C119.648 24.5961 119.403 24.802 119.189 25.0389C118.997 25.2499 118.837 25.4889 118.715 25.748H118.672C118.672 25.461 118.665 25.1824 118.652 24.908C118.638 24.6336 118.63 24.3641 118.63 24.0918H117.07C117.07 24.4218 117.084 24.7869 117.112 25.1873C117.139 25.5877 117.153 26.0173 117.153 26.476V34.1417H118.8V29.2459C118.795 28.7174 118.855 28.1904 118.979 27.6772C119.084 27.2374 119.271 26.822 119.529 26.4536C119.774 26.1108 120.101 25.8373 120.478 25.6591C120.913 25.4626 121.385 25.3669 121.86 25.3791C122.142 25.3546 122.425 25.4065 122.68 25.5295C122.936 25.6524 123.155 25.8421 123.315 26.0791C123.668 26.8156 123.821 27.635 123.758 28.4521V34.1431H125.4V28.3429C125.395 27.9296 125.463 27.5187 125.601 27.1298C125.723 26.7851 125.909 26.4679 126.151 26.196C126.379 25.9415 126.655 25.7369 126.963 25.5947C127.274 25.4512 127.612 25.3779 127.954 25.3798C128.36 25.3648 128.765 25.4455 129.135 25.6157C129.427 25.7594 129.68 25.9735 129.873 26.2394C130.058 26.5027 130.188 26.8023 130.253 27.1193C130.323 27.451 130.359 27.7894 130.358 28.1287V34.1417H132V28.0426C132.006 27.4536 131.942 26.8661 131.81 26.2926Z" fill="#563AD6"/>
</g>
<defs>
<clipPath id="clip0_1525_8419">
<rect width="132" height="56" fill="white"/>
</clipPath>
</defs>
</svg>
