<svg width="192" height="80" viewBox="0 0 192 80" fill="none" xmlns="http://www.w3.org/2000/svg">
<g opacity="0.78" clip-path="url(#clip0_1525_8254)">
<path d="M28.903 8H0V36.903H28.903V8Z" fill="#333333"/>
<path d="M35.1001 8V36.9H64.0001C64.0001 29.2352 60.9553 21.8844 55.5355 16.4646C50.1157 11.0448 42.7649 8 35.1001 8Z" fill="#333333"/>
<path d="M14.452 43.1001C10.6197 43.0998 6.94423 44.6218 4.23401 47.3313C1.5238 50.0408 0.000795568 53.7158 0 57.5481L0 72.0001H14.452C18.2427 71.937 21.8569 70.3869 24.5153 67.6838C27.1738 64.9808 28.6636 61.3414 28.6636 57.5501C28.6636 53.7588 27.1738 50.1194 24.5153 47.4164C21.8569 44.7133 18.2427 43.1632 14.452 43.1001Z" fill="#333333"/>
<path d="M35 43L35.097 72H64L54.83 62.83L35 43Z" fill="#333333"/>
<path d="M82.0331 33.8281C81.684 34.0279 81.3067 34.1739 80.9141 34.2611C79.6865 34.5477 78.3976 34.4008 77.2661 33.8451C76.501 33.4833 75.8363 32.9394 75.3301 32.2611L71.7771 36.1611C72.7909 37.1197 73.9897 37.8611 75.3001 38.3401C77.7026 39.1535 80.2931 39.2315 82.7401 38.5641C83.7485 38.2901 84.694 37.8228 85.5241 37.1881C86.3282 36.5646 86.9796 35.766 87.4291 34.8531C87.9172 33.823 88.1569 32.6927 88.1291 31.5531C88.184 30.4452 87.9173 29.345 87.3611 28.3851C86.8688 27.6171 86.2068 26.9722 85.4261 26.5001C84.6404 26.0284 83.7957 25.6625 82.9141 25.4121C82.0181 25.1561 81.1804 24.9005 80.4011 24.6451C79.7134 24.4328 79.061 24.1197 78.4651 23.7161C78.0717 23.4099 77.8076 22.9672 77.7248 22.4756C77.642 21.9841 77.7467 21.4793 78.0181 21.0611C78.2344 20.7583 78.5196 20.5112 78.8501 20.3401C79.1928 20.1579 79.5589 20.0233 79.9381 19.9401C80.3056 19.8567 80.6812 19.8138 81.0581 19.8121C81.73 19.8225 82.3952 19.9473 83.0251 20.1811C83.672 20.394 84.2443 20.7879 84.6741 21.3161L88.1001 17.5721C87.1683 16.7356 86.0649 16.1131 84.8671 15.7481C83.6634 15.3844 82.4125 15.2011 81.1551 15.2041C80.0614 15.2021 78.9731 15.3584 77.9241 15.6681C76.9221 15.9553 75.9829 16.4278 75.1551 17.0611C74.3557 17.6793 73.7005 18.4641 73.2351 19.3611C72.7388 20.3535 72.492 21.4519 72.5161 22.5611C72.4651 23.63 72.7384 24.6893 73.3001 25.6001C73.8112 26.3567 74.4836 26.9906 75.2691 27.4561C76.073 27.933 76.9324 28.3091 77.8281 28.5761C78.7454 28.8535 79.5988 29.1308 80.3881 29.4081C81.0922 29.6413 81.7563 29.9813 82.3571 30.4161C82.6096 30.6012 82.8129 30.8452 82.9494 31.1268C83.0859 31.4085 83.1514 31.7193 83.1401 32.0321C83.1499 32.4065 83.0453 32.7749 82.8401 33.0881C82.6317 33.3937 82.3555 33.6469 82.0331 33.8281Z" fill="#333333"/>
<path d="M96.226 38.4368H101.217V20.1958H107.681V15.7798H89.761V20.1958H96.226V38.4368Z" fill="#333333"/>
<path d="M115.616 38.3088C118.299 39.2475 121.221 39.2475 123.904 38.3088C125.032 37.8833 126.053 37.2168 126.896 36.3558C127.702 35.5147 128.318 34.5109 128.704 33.4118C129.12 32.2189 129.325 30.963 129.312 29.6998V15.7798H124.32V29.5078C124.327 30.1734 124.213 30.8347 123.984 31.4598C123.775 32.0344 123.454 32.5621 123.04 33.0128C122.636 33.4491 122.146 33.7974 121.601 34.0358C121.025 34.2856 120.404 34.411 119.776 34.4038C119.144 34.4101 118.518 34.2848 117.937 34.0358C117.385 33.8005 116.889 33.452 116.48 33.0128C116.067 32.5616 115.747 32.034 115.536 31.4598C115.307 30.8347 115.193 30.1734 115.2 29.5078V15.7798H110.208V29.6998C110.195 30.963 110.401 32.2189 110.816 33.4118C111.202 34.5107 111.819 35.5145 112.624 36.3558C113.468 37.2165 114.489 37.883 115.616 38.3088Z" fill="#333333"/>
<path d="M146.913 37.7C148.391 37.2408 149.77 36.5081 150.978 35.54C152.156 34.5846 153.112 33.3837 153.778 32.021C154.497 30.5075 154.853 28.8472 154.818 27.172C154.871 25.3534 154.504 23.5471 153.746 21.893C153.077 20.4988 152.082 19.2858 150.846 18.356C149.567 17.4213 148.115 16.7524 146.573 16.389C144.882 15.9759 143.146 15.7714 141.405 15.78H133.917V38.437H142.077C143.718 38.4444 145.349 38.1958 146.913 37.7ZM138.913 33.828V20.389H141.857C142.868 20.3844 143.875 20.519 144.85 20.789C145.744 21.0302 146.585 21.4373 147.329 21.989C148.038 22.5283 148.613 23.2241 149.009 24.022C149.443 24.9241 149.657 25.9163 149.633 26.917C149.666 28.0324 149.453 29.1413 149.009 30.165C148.625 31.011 148.037 31.7481 147.297 32.31C146.528 32.8735 145.651 33.2712 144.721 33.478C143.666 33.719 142.587 33.8368 141.505 33.829L138.913 33.828Z" fill="#333333"/>
<path d="M163.137 15.7798H158.145V38.4358H163.137V15.7798Z" fill="#333333"/>
<path d="M190 22.1811C189.428 20.7614 188.561 19.4794 187.456 18.4201C186.341 17.3696 185.024 16.5583 183.584 16.0361C180.414 14.9268 176.962 14.9268 173.792 16.0361C172.352 16.5583 171.034 17.3696 169.92 18.4201C168.815 19.4794 167.948 20.7614 167.376 22.1811C166.75 23.7472 166.44 25.4217 166.464 27.1081C166.44 28.7948 166.75 30.4696 167.376 32.0361C167.948 33.4555 168.815 34.7371 169.92 35.7961C171.034 36.8472 172.352 37.6589 173.792 38.1811C176.962 39.2904 180.414 39.2904 183.584 38.1811C185.024 37.6589 186.342 36.8472 187.456 35.7961C188.561 34.7371 189.428 33.4555 190 32.0361C190.626 30.4696 190.936 28.7948 190.912 27.1081C190.936 25.4217 190.626 23.7472 190 22.1811ZM185.232 30.0361C184.919 30.8916 184.434 31.6742 183.808 32.3361C183.181 32.9927 182.423 33.5106 181.584 33.8561C179.721 34.5815 177.654 34.5815 175.792 33.8561C174.952 33.5106 174.195 32.9927 173.568 32.3361C172.942 31.6742 172.457 30.8916 172.144 30.0361C171.483 28.1456 171.483 26.0866 172.144 24.1961C172.454 23.3332 172.939 22.5435 173.568 21.8761C174.196 21.2204 174.953 20.7027 175.792 20.3561C177.654 19.6307 179.721 19.6307 181.584 20.3561C182.423 20.7027 183.18 21.2204 183.808 21.8761C184.437 22.5435 184.922 23.3332 185.232 24.1961C185.893 26.0866 185.893 28.1456 185.232 30.0361Z" fill="#333333"/>
<path d="M89.313 43.083H71.394V47.499H77.857V65.739H82.85V47.499H89.313V43.083Z" fill="#333333"/>
<path d="M96.354 43.083L86.562 65.739H92.062L93.951 60.939H102.751L104.703 65.739H110.335L100.478 43.083H96.354ZM95.521 56.715L98.273 49.675L101.058 56.715H95.521Z" fill="#333333"/>
<path d="M129.089 58.827H129.024L119.393 43.083H112.608V65.739H117.601V49.611H117.665L127.553 65.739H134.081V43.083H129.089V58.827Z" fill="#333333"/>
<path d="M146.145 43.083L136.353 65.739H141.853L143.742 60.939H152.542L154.494 65.739H160.126L150.269 43.083H146.145ZM145.312 56.715L148.064 49.675L150.849 56.715H145.312Z" fill="#333333"/>
<path d="M177.089 51.531H167.393V43.083H162.4V65.739H167.393V55.947H177.089V65.739H182.081V43.083H177.089V51.531Z" fill="#333333"/>
</g>
<defs>
<clipPath id="clip0_1525_8254">
<rect width="192" height="80" fill="white"/>
</clipPath>
</defs>
</svg>
