<svg width="192" height="80" viewBox="0 0 192 80" fill="none" xmlns="http://www.w3.org/2000/svg">
<g opacity="0.78" clip-path="url(#clip0_1525_8257)">
<path d="M22.99 45.8999L23.142 65.8819C23.154 67.4819 23.183 68.4869 23.229 68.8969C23.2416 69.0836 23.2953 69.2651 23.3865 69.4285C23.4776 69.5919 23.6038 69.7331 23.756 69.8419C24.2565 70.103 24.8222 70.2128 25.384 70.1579H25.822L25.83 70.9979L17.83 71.0579L17.823 70.2179H18.335C18.8734 70.2554 19.412 70.1469 19.894 69.9039C20.0425 69.8108 20.1688 69.6862 20.264 69.539C20.3592 69.3918 20.421 69.2255 20.445 69.0519C20.5243 68.0059 20.5467 66.9563 20.512 65.9079L20.4 51.1079C20.4914 50.0988 20.3398 49.0825 19.958 48.1439C19.676 47.7372 18.9923 47.5372 17.907 47.5439L17.901 46.7039C18.7805 46.6845 19.6568 46.5922 20.521 46.4279C21.2281 46.3299 21.9221 46.1531 22.59 45.9009L22.99 45.8999Z" fill="#333333"/>
<path d="M27.7449 63.4781C27.7087 62.4146 27.8901 61.3549 28.2778 60.3639C28.6656 59.373 29.2516 58.4716 29.9999 57.7151C31.505 56.221 33.5357 55.3762 35.6564 55.362C37.7771 55.3478 39.8189 56.1653 41.3439 57.6391C42.1025 58.3832 42.7016 59.2741 43.1046 60.2573C43.5076 61.2406 43.706 62.2956 43.6879 63.3581C43.7549 64.4576 43.5853 65.5588 43.1906 66.5873C42.796 67.6157 42.1853 68.5476 41.3999 69.3201C39.8844 70.7624 37.8648 71.5545 35.7729 71.5271C34.7354 71.5562 33.7023 71.3806 32.7327 71.0104C31.763 70.6401 30.8759 70.0824 30.1219 69.3691C29.3318 68.6109 28.7115 67.6939 28.3017 66.6785C27.892 65.663 27.7022 64.5722 27.7449 63.4781ZM30.7769 63.5461C30.7969 66.2007 31.2432 68.0574 32.1159 69.1161C32.559 69.6444 33.1196 70.0618 33.7529 70.3347C34.3862 70.6077 35.0745 70.7287 35.7629 70.6881C36.4565 70.7242 37.1489 70.5956 37.7833 70.3128C38.4177 70.0301 38.9761 69.6011 39.4129 69.0611C40.2509 67.9897 40.6602 66.1264 40.6409 63.4711C40.6196 60.8411 40.1862 58.9691 39.3409 57.8551C38.9086 57.2987 38.3464 56.8568 37.7036 56.5683C37.0607 56.2797 36.357 56.1533 35.6539 56.2001C34.9526 56.1653 34.2533 56.3019 33.6166 56.5981C32.98 56.8943 32.425 57.3412 31.9999 57.9001C31.1659 59.0214 30.7582 60.9034 30.7769 63.5461Z" fill="#333333"/>
<path d="M57.836 57.1141C58.1991 56.6105 58.6665 56.1909 59.2062 55.8839C59.7459 55.577 60.3454 55.3898 60.964 55.3351C61.211 55.3182 61.459 55.3507 61.6934 55.4307C61.9277 55.5107 62.1438 55.6366 62.329 55.8011C62.4781 55.9307 62.5987 56.0897 62.6834 56.2682C62.7681 56.4466 62.8149 56.6407 62.821 56.8381C62.827 57.6421 62.4646 58.0468 61.734 58.0521C61.5085 58.0352 61.2919 57.9573 61.1074 57.8265C60.9229 57.6958 60.7776 57.5173 60.687 57.3101C60.415 56.8511 60.134 56.6201 59.842 56.6221C59.5349 56.669 59.2408 56.7787 58.978 56.9444C58.7153 57.1101 58.4896 57.3282 58.315 57.5851C58.9386 58.526 59.2765 59.6273 59.288 60.7561C59.305 62.2027 58.7513 63.5978 57.747 64.6391C56.7076 65.7804 54.9466 66.4031 52.464 66.5071C49.8833 66.6111 48.5963 67.1444 48.603 68.1071C48.607 68.5571 48.9016 68.8711 49.487 69.0491C50.675 69.3181 51.8889 69.4559 53.107 69.4601C54.6679 69.4894 56.2226 69.6645 57.751 69.9831C58.6276 70.2089 59.4222 70.6786 60.0427 71.3376C60.6632 71.9967 61.0842 72.8182 61.2568 73.7068C61.4294 74.5954 61.3466 75.5147 61.0179 76.3581C60.6893 77.2016 60.1283 77.9346 59.4 78.4721C57.725 79.5773 55.7385 80.1131 53.735 80.0001C51.8324 80.1063 49.9393 79.6637 48.281 78.7251C47.6735 78.4068 47.1617 77.9328 46.798 77.3514C46.4342 76.7701 46.2316 76.1025 46.211 75.4171C46.1782 74.7582 46.3802 74.1091 46.781 73.5851C46.9824 73.3442 47.237 73.1533 47.5247 73.0275C47.8124 72.9017 48.1253 72.8444 48.439 72.8601C48.6195 72.8573 48.799 72.8871 48.969 72.9481C48.2733 73.6525 47.8749 74.5973 47.856 75.5871C47.8637 76.1216 48.008 76.6453 48.2753 77.1083C48.5426 77.5712 48.9239 77.9581 49.383 78.2321C50.7506 79.0149 52.3216 79.3695 53.893 79.2501C55.3561 79.3245 56.806 78.9399 58.04 78.1501C58.4965 77.8525 58.8705 77.4444 59.1272 76.9636C59.3838 76.4829 59.5148 75.945 59.508 75.4001C59.549 74.8884 59.4437 74.3755 59.2043 73.9213C58.9649 73.4672 58.6013 73.0904 58.156 72.8351C56.6445 72.2342 55.0257 71.95 53.4 72.0001C50.782 71.9094 49.082 71.5994 48.3 71.0701C47.9438 70.866 47.6472 70.5725 47.4393 70.2186C47.2315 69.8646 47.1197 69.4625 47.115 69.0521C47.103 67.4561 48.21 66.4428 50.436 66.0121C49.3926 65.4484 48.4912 64.6547 47.8 63.6911C47.211 62.8262 46.8973 61.8035 46.9 60.7571C46.8886 60.0175 47.0415 59.2846 47.3475 58.6113C47.6536 57.9379 48.1053 57.3408 48.67 56.8631C49.8296 55.8 51.3498 55.217 52.923 55.2321C53.828 55.1844 54.7329 55.3273 55.5793 55.6515C56.4256 55.9757 57.1944 56.474 57.836 57.1141ZM49.647 61.1571C49.5536 62.3868 49.9061 63.609 50.64 64.6001C50.946 64.9415 51.321 65.214 51.7402 65.3997C52.1594 65.5855 52.6133 65.6801 53.0718 65.6775C53.5302 65.6748 53.9829 65.5749 54.4 65.3844C54.817 65.1938 55.1888 64.917 55.491 64.5721C56.257 63.4696 56.5999 62.128 56.457 60.7931C56.4436 58.9931 56.0816 57.7538 55.371 57.0751C55.0577 56.7565 54.6842 56.5034 54.2721 56.3307C53.8601 56.158 53.4178 56.0691 52.971 56.0691C52.4769 56.0441 51.9849 56.1492 51.5443 56.374C51.1036 56.5988 50.7297 56.9354 50.46 57.3501C49.83 58.5151 49.5478 59.8364 49.647 61.1571Z" fill="#333333"/>
<path d="M63.983 63.2002C63.947 62.1367 64.1287 61.0772 64.517 60.0865C64.9052 59.0958 65.4919 58.1949 66.241 57.4392C67.745 55.9437 69.7756 55.0978 71.8966 55.0832C74.0175 55.0686 76.0595 55.8865 77.584 57.3612C78.3424 58.1054 78.9414 58.9963 79.3444 59.9795C79.7474 60.9628 79.946 62.0177 79.928 63.0802C79.9947 64.1804 79.8244 65.2821 79.4287 66.3108C79.0329 67.3396 78.4209 68.2714 77.634 69.0432C76.1188 70.4852 74.0995 71.277 72.008 71.2492C70.9709 71.2797 69.938 71.1056 68.9682 70.7369C67.9985 70.3681 67.1108 69.812 66.356 69.1002C65.5653 68.3408 64.9449 67.4222 64.5358 66.4051C64.1268 65.3879 63.9383 64.2956 63.983 63.2002ZM67.016 63.2692C67.036 65.9239 67.482 67.7809 68.354 68.8402C68.8227 69.341 69.3901 69.7392 70.0205 70.0097C70.6508 70.2802 71.3304 70.4172 72.0163 70.4119C72.7022 70.4067 73.3795 70.2593 74.0057 69.9791C74.6318 69.699 75.193 69.2921 75.654 68.7842C76.4927 67.7135 76.902 65.8502 76.882 63.1942C76.8607 60.5642 76.4273 58.6925 75.582 57.5792C75.1237 57.0559 74.5581 56.6373 73.9237 56.352C73.2892 56.0666 72.6008 55.9211 71.9052 55.9254C71.2096 55.9296 70.523 56.0836 69.8921 56.3767C69.2613 56.6698 68.7009 57.0953 68.249 57.6242C67.4063 58.7482 66.9953 60.6312 67.016 63.2732V63.2692Z" fill="#333333"/>
<path d="M87.45 54.4861L87.531 65.2421C87.543 66.8861 87.5764 67.9217 87.631 68.3491C87.6475 68.542 87.7055 68.729 87.8011 68.8973C87.8968 69.0656 88.0277 69.2112 88.185 69.3241C88.7017 69.5921 89.2847 69.7053 89.864 69.6501H90.264L90.271 70.5171L81.964 70.5791L81.957 69.7121L82.598 69.7071C83.2064 69.7764 83.8201 69.6352 84.337 69.3071C84.597 69.063 84.7615 68.7344 84.801 68.3801C84.843 68.0221 84.8574 66.9827 84.844 65.2621L84.8 60.5901C84.8604 59.4782 84.7669 58.3633 84.522 57.2771C84.4667 57.111 84.377 56.9585 84.2588 56.8295C84.1406 56.7004 83.9966 56.5977 83.836 56.5281C83.353 56.4088 82.8549 56.3619 82.358 56.3891H81.849L81.842 55.5221C83.6069 55.377 85.3491 55.0287 87.034 54.4841L87.45 54.4861ZM83.75 46.6391C83.7446 46.3796 83.7918 46.1218 83.8889 45.8811C83.986 45.6405 84.131 45.422 84.315 45.2391C84.4911 45.0498 84.7046 44.8992 84.942 44.7969C85.1794 44.6946 85.4355 44.6429 85.694 44.6451C85.9513 44.6389 86.2071 44.6867 86.4447 44.7854C86.6824 44.884 86.8968 45.0314 87.074 45.2181C87.2578 45.3994 87.4034 45.6158 87.5022 45.8543C87.6009 46.0929 87.6509 46.3489 87.649 46.6071C87.6561 46.8686 87.6107 47.1289 87.5155 47.3726C87.4204 47.6163 87.2774 47.8385 87.095 48.0261C86.9206 48.2149 86.7086 48.3652 86.4727 48.4673C86.2368 48.5694 85.9821 48.6211 85.725 48.6191C85.4665 48.6246 85.2096 48.5765 84.9706 48.4779C84.7316 48.3793 84.5155 48.2322 84.336 48.0461C84.1493 47.8628 84.0016 47.6437 83.9018 47.4019C83.8019 47.1601 83.752 46.9006 83.755 46.6391H83.75Z" fill="#333333"/>
<path d="M95.6439 54.4231H96.1529C96.3876 55.2494 96.5018 56.1052 96.4919 56.9641C97.2163 56.1586 98.091 55.5023 99.0669 55.0321C100.439 54.4109 101.969 54.2273 103.449 54.5062C104.929 54.7852 106.287 55.5131 107.339 56.5911C108.816 58.2029 109.597 60.3332 109.512 62.5181C109.6 64.7297 108.853 66.8936 107.42 68.5801C106.728 69.3828 105.866 70.0211 104.896 70.4486C103.927 70.876 102.874 71.0819 101.815 71.0511C100.872 71.0609 99.9368 70.8725 99.0709 70.4981C98.1461 70.0902 97.3023 69.5191 96.5799 68.8121L96.6239 74.6701C96.6039 75.7573 96.647 76.8448 96.7529 77.9271C96.781 78.1082 96.8496 78.2806 96.9534 78.4315C97.0573 78.5825 97.1938 78.7081 97.3529 78.7991C97.9319 79.0356 98.5588 79.1309 99.1819 79.0771L99.1889 79.9441L91.1269 80.0001L91.1199 79.1331H91.6849C92.2935 79.2017 92.9074 79.0606 93.4249 78.7331C93.6857 78.4898 93.8501 78.1607 93.8879 77.8061C93.9299 77.4494 93.9442 76.4104 93.9309 74.6891L93.8259 60.6751C93.8139 59.0311 93.7839 57.9951 93.7359 57.5671C93.7227 57.3747 93.667 57.1876 93.573 57.0192C93.4789 56.8508 93.3488 56.7053 93.1919 56.5931C92.6754 56.3248 92.0923 56.2116 91.5129 56.2671H90.9489L90.9409 55.4001C92.5314 55.1958 94.1037 54.8691 95.6439 54.4231ZM96.5719 67.5651C97.1704 68.3172 97.9073 68.9479 98.7429 69.4231C99.4782 69.8316 100.307 70.0428 101.148 70.0361C101.864 70.0243 102.569 69.8515 103.209 69.5306C103.85 69.2096 104.41 68.7488 104.848 68.1821C105.894 66.9548 106.407 65.0104 106.386 62.3491C106.515 60.4927 105.958 58.6535 104.822 57.1801C104.376 56.6476 103.817 56.2203 103.187 55.9289C102.556 55.6374 101.869 55.4889 101.174 55.4941C100.308 55.5 99.4582 55.7338 98.7109 56.1721C97.8508 56.6935 97.0999 57.3768 96.4999 58.1841L96.5719 67.5651Z" fill="#333333"/>
<path d="M112.663 70.8352L112.625 65.7692L113.36 65.7622C114.235 68.6816 115.772 70.1332 117.971 70.1172C118.37 70.1439 118.77 70.0781 119.14 69.925C119.51 69.7718 119.839 69.5355 120.102 69.2342C120.551 68.7005 120.796 68.0248 120.794 67.3272C120.804 66.9636 120.742 66.6017 120.61 66.2628C120.478 65.9239 120.279 65.6149 120.025 65.3542C119.117 64.5977 118.104 63.9775 117.017 63.5132C115.77 62.9724 114.629 62.2154 113.646 61.2772C112.962 60.5522 112.59 59.5878 112.609 58.5912C112.619 57.5242 112.997 56.4934 113.68 55.6732C114.041 55.2121 114.507 54.8438 115.039 54.5989C115.571 54.354 116.154 54.2396 116.739 54.2652C117.385 54.2519 118.024 54.3912 118.606 54.6716C119.188 54.9521 119.695 55.3658 120.087 55.8792C120.399 55.4594 120.643 54.9935 120.81 54.4982H121.51L121.545 59.2642L120.845 59.2692C120.611 58.179 120.101 57.1672 119.363 56.3312C119.053 55.9514 118.663 55.6453 118.22 55.4353C117.777 55.2253 117.292 55.1167 116.802 55.1172C116.466 55.1052 116.131 55.1621 115.818 55.2844C115.504 55.4067 115.219 55.5917 114.98 55.8282C114.761 56.0378 114.587 56.2902 114.469 56.5697C114.352 56.8493 114.293 57.15 114.296 57.4532C114.296 57.7831 114.366 58.1093 114.501 58.4102C114.636 58.7112 114.834 58.9801 115.08 59.1992C115.947 59.9158 116.925 60.4872 117.975 60.8912C120.118 61.8432 121.431 62.7766 121.914 63.6912C122.369 64.5094 122.622 65.4245 122.651 66.3602C122.679 66.9689 122.577 67.5764 122.353 68.143C122.129 68.7095 121.788 69.2222 121.351 69.6472C120.908 70.0707 120.385 70.4024 119.812 70.6233C119.24 70.8441 118.63 70.9498 118.017 70.9342C117.298 70.9329 116.587 70.7787 115.932 70.4819C115.277 70.185 114.692 69.7522 114.217 69.2122C113.83 69.6883 113.551 70.2432 113.4 70.8382L112.663 70.8352Z" fill="#333333"/>
<path d="M140.611 54.707L140.687 64.822C140.699 66.5047 140.732 67.559 140.787 67.985C140.802 68.177 140.861 68.363 140.959 68.5289C141.057 68.6949 141.191 68.8365 141.351 68.943C141.888 69.198 142.484 69.3037 143.076 69.249L143.083 70.116C141.664 70.0731 140.249 70.2876 138.906 70.749H138.68C138.181 69.6264 137.952 68.4022 138.013 67.175C137.361 68.2659 136.469 69.194 135.405 69.889C134.426 70.4983 133.296 70.8195 132.143 70.816C131.186 70.8428 130.239 70.6062 129.407 70.132C128.691 69.7507 128.116 69.151 127.764 68.42C127.413 67.4375 127.255 66.3965 127.298 65.354L127.259 60.099C127.277 59.008 127.237 57.9168 127.14 56.83C127.116 56.6479 127.049 56.474 126.945 56.3227C126.841 56.1715 126.702 56.0472 126.54 55.96C125.956 55.7316 125.327 55.6396 124.701 55.691L124.694 54.824L129.93 54.784L130.011 65.484C129.991 66.2561 130.06 67.028 130.218 67.784C130.379 68.3028 130.724 68.7453 131.187 69.029C131.716 69.3865 132.343 69.5694 132.981 69.552C133.982 69.5321 134.95 69.1914 135.743 68.58C136.504 68.0711 137.119 67.3719 137.526 66.552C137.884 65.578 138.04 64.5413 137.984 63.505L137.958 60.021C137.946 58.3384 137.919 57.3147 137.878 56.95C137.836 56.5856 137.662 56.249 137.39 56.003C136.865 55.6722 136.242 55.5337 135.626 55.611H135.226L135.22 54.744L140.611 54.707Z" fill="#333333"/>
<path d="M149.345 54.0189H149.533C149.938 55.0476 150.132 56.1475 150.103 57.2529C150.829 56.2636 151.748 55.4311 152.803 54.8049C153.757 54.2607 154.835 53.9731 155.933 53.9699C157.03 53.9105 158.117 54.2065 159.033 54.8139C159.875 55.4555 160.469 56.37 160.711 57.4009C161.519 56.359 162.508 55.4709 163.63 54.7789C164.553 54.2152 165.61 53.9079 166.692 53.8889C167.763 53.8469 168.822 54.1277 169.732 54.6949C170.457 55.1057 171 55.7745 171.253 56.5679C171.474 57.6895 171.571 58.832 171.542 59.9749L171.577 64.6089C171.557 65.7024 171.599 66.7962 171.705 67.8849C171.733 68.0661 171.802 68.2383 171.908 68.3881C172.014 68.5379 172.153 68.661 172.314 68.7479C172.905 68.9773 173.54 69.0686 174.172 69.0149L174.178 69.8819L166.478 69.9409L166.472 69.0739C167.06 69.1103 167.648 69.0125 168.192 68.7879C168.35 68.7045 168.487 68.586 168.592 68.4414C168.697 68.2968 168.768 68.13 168.798 67.9539C168.898 66.8489 168.928 65.7386 168.886 64.6299L168.848 59.4869C168.861 58.6978 168.794 57.9094 168.648 57.1339C168.508 56.5838 168.172 56.1036 167.704 55.7829C167.128 55.3897 166.439 55.1965 165.742 55.2329C164.858 55.2616 164.003 55.5572 163.29 56.0809C162.334 56.7781 161.503 57.6314 160.831 58.6049L160.878 64.6899C160.89 66.3339 160.919 67.3672 160.966 67.7899C160.98 67.9814 161.036 68.1677 161.128 68.336C161.221 68.5044 161.348 68.651 161.502 68.7659C162.006 69.0416 162.581 69.1587 163.152 69.1019L163.16 69.9689L155.699 70.0249L155.693 69.1579C156.292 69.195 156.893 69.1008 157.452 68.8819C157.61 68.8015 157.747 68.6863 157.854 68.5452C157.96 68.404 158.034 68.2405 158.068 68.0669C158.178 66.9525 158.212 65.8318 158.168 64.7129L158.135 60.4369C158.151 59.4513 158.09 58.466 157.953 57.4899C157.832 56.8666 157.482 56.3114 156.972 55.9339C156.393 55.4935 155.678 55.2692 154.951 55.2999C154.102 55.3277 153.277 55.5946 152.573 56.0699C151.64 56.6968 150.81 57.4658 150.114 58.3489L150.163 64.7729C150.175 66.4675 150.208 67.5225 150.263 67.9379C150.28 68.1273 150.341 68.3102 150.44 68.4726C150.539 68.635 150.674 68.7726 150.834 68.8749C151.382 69.13 151.987 69.2359 152.589 69.1819L152.595 70.0489L145.043 70.1049L145.036 69.2379C145.63 69.2752 146.225 69.1774 146.776 68.9519C146.933 68.8697 147.069 68.7529 147.174 68.6103C147.279 68.4677 147.35 68.3031 147.382 68.1289C147.482 67.0202 147.511 65.9063 147.47 64.7939L147.435 60.1789C147.422 58.4195 147.386 57.3425 147.326 56.9479C147.304 56.7638 147.238 56.5875 147.136 56.433C147.033 56.2784 146.896 56.15 146.735 56.0579C146.167 55.8164 145.549 55.7175 144.935 55.7699L144.928 54.9029C146.428 54.7698 147.909 54.4734 149.345 54.0189Z" fill="#333333"/>
<path d="M160.132 36.4671H123.786V0.12207C133.425 0.12207 142.67 3.95123 149.486 10.7672C156.302 17.5832 160.132 26.8277 160.132 36.4671Z" fill="#333333"/>
<path d="M50.0409 36.4671H31.8679V18.2941C31.8682 13.4745 33.783 8.85235 37.191 5.44447C40.5991 2.03658 45.2213 0.12207 50.0409 0.12207C52.4274 0.121939 54.7905 0.591875 56.9953 1.50504C59.2002 2.41821 61.2036 3.75673 62.8911 5.44417C64.5786 7.13161 65.9173 9.13492 66.8306 11.3397C67.7439 13.5445 68.2139 15.9076 68.2139 18.2941C68.2139 23.1138 66.2993 27.7362 62.8912 31.1443C59.4831 34.5524 54.8607 36.4671 50.0409 36.4671Z" fill="#333333"/>
<path d="M114.234 36.467H77.8879L77.7659 0L102.703 24.936L114.234 36.467Z" fill="#333333"/>
</g>
<defs>
<clipPath id="clip0_1525_8257">
<rect width="192" height="80" fill="white"/>
</clipPath>
</defs>
</svg>
