<svg width="192" height="80" viewBox="0 0 192 80" fill="none" xmlns="http://www.w3.org/2000/svg">
<g opacity="0.78" clip-path="url(#clip0_1525_8255)">
<path d="M0 34.7651V41.8001C2.404 41.7985 4.78474 42.2708 7.00599 43.1902C9.22723 44.1096 11.2454 45.458 12.945 47.1581C14.6442 48.8577 15.9917 50.8755 16.9106 53.0962C17.8294 55.3169 18.3016 57.6969 18.3 60.1001H25.33C25.3236 53.3837 22.6531 46.9441 17.9043 42.1944C13.1555 37.4447 6.71644 34.7728 0 34.7651H0Z" fill="#333333"/>
<path d="M35.1571 22.1001H24.0161C29.6521 25.6717 34.4277 30.4466 38.0001 36.0821V24.9411C37.9996 24.1874 37.6998 23.4648 37.1667 22.9321C36.6336 22.3994 35.9108 22.1001 35.1571 22.1001Z" fill="#333333"/>
<path d="M7 22.1001H0V28.4341C8.39576 28.4428 16.4452 31.7818 22.3819 37.7184C28.3187 43.655 31.658 51.7043 31.667 60.1001H38V53.1001C36.5681 45.4066 32.84 38.3271 27.3065 32.7936C21.773 27.2601 14.6935 23.532 7 22.1001Z" fill="#333333"/>
<path d="M55.231 26.2832H50.769V48.7732H55.231V26.2832Z" fill="#333333"/>
<path d="M71.6369 36.027C70.8941 35.3518 70.0246 34.8307 69.0789 34.494C67.0474 33.7806 64.8334 33.7806 62.8019 34.494C61.8558 34.8305 60.986 35.3515 60.2429 36.027C59.5142 36.6988 58.9321 37.5138 58.5329 38.421C58.1204 39.4107 57.908 40.4723 57.908 41.5445C57.908 42.6167 58.1204 43.6783 58.5329 44.668C58.9306 45.5778 59.5129 46.3951 60.2429 47.068C60.9846 47.744 61.854 48.2648 62.7999 48.6C64.8312 49.3146 67.0456 49.3146 69.0769 48.6C70.0231 48.2648 70.8928 47.744 71.6349 47.068C72.3647 46.3948 72.9469 45.5776 73.3449 44.668C73.7575 43.6783 73.9699 42.6167 73.9699 41.5445C73.9699 40.4723 73.7575 39.4107 73.3449 38.421C72.9461 37.5141 72.3647 36.6992 71.6369 36.027ZM68.5729 44.193C67.8504 44.8439 66.9124 45.204 65.9399 45.204C64.9675 45.204 64.0295 44.8439 63.3069 44.193C62.6996 43.4433 62.3682 42.5078 62.3682 41.543C62.3682 40.5782 62.6996 39.6427 63.3069 38.893C64.0295 38.2421 64.9675 37.882 65.9399 37.882C66.9124 37.882 67.8504 38.2421 68.5729 38.893C69.1802 39.6427 69.5116 40.5782 69.5116 41.543C69.5116 42.5078 69.1802 43.4433 68.5729 44.193Z" fill="#333333"/>
<path d="M87.6559 36.2199H87.5999C87.3935 35.9302 87.1539 35.6657 86.8859 35.4319C86.5612 35.1447 86.2017 34.8994 85.8159 34.7019C84.8406 34.2015 83.758 33.9464 82.6619 33.9589C81.7014 33.9421 80.7514 34.1619 79.8959 34.5989C79.0987 35.0117 78.3948 35.5839 77.8279 36.2799C77.2498 36.9973 76.8063 37.8135 76.5189 38.6889C76.2133 39.5908 76.0576 40.5367 76.0579 41.4889C76.0466 42.5111 76.218 43.527 76.5639 44.4889C76.8773 45.3667 77.3659 46.1717 77.9999 46.8549C78.6316 47.5235 79.3982 48.0501 80.2489 48.3999C81.1738 48.7769 82.1652 48.9639 83.1639 48.9499C83.9026 48.9372 84.633 48.7911 85.3199 48.5189C86.0902 48.2267 86.7575 47.7145 87.2389 47.0459H87.2989V48.4459C87.3156 48.9129 87.2387 49.3785 87.0726 49.8152C86.9065 50.252 86.6547 50.651 86.3319 50.9889C85.9224 51.3512 85.4435 51.6267 84.9244 51.7986C84.4053 51.9705 83.8567 52.0352 83.3119 51.9889C82.448 51.9986 81.5917 51.8262 80.7989 51.4829C80.0101 51.1304 79.274 50.67 78.6119 50.1149L76.1429 53.7999C77.1521 54.6128 78.3317 55.1874 79.5939 55.4809C80.8429 55.7681 82.1204 55.9127 83.4019 55.9119C86.2179 55.9119 88.3149 55.2029 89.6929 53.7849C91.0709 52.3669 91.7602 50.2896 91.7609 47.5529V34.3159H87.6609L87.6559 36.2199ZM87.3879 42.8089C87.2119 43.2322 86.9539 43.6166 86.6289 43.9399C86.298 44.2696 85.9101 44.5366 85.4839 44.7279C85.0414 44.9244 84.5626 45.026 84.0784 45.026C83.5942 45.026 83.1154 44.9244 82.6729 44.7279C82.2524 44.5339 81.8695 44.2672 81.5419 43.9399C81.2155 43.6138 80.9565 43.2266 80.7798 42.8004C80.6031 42.3742 80.5122 41.9173 80.5122 41.4559C80.5122 40.9945 80.6031 40.5376 80.7798 40.1114C80.9565 39.6852 81.2155 39.298 81.5419 38.9719C81.8697 38.6447 82.2526 38.3776 82.6729 38.1829C83.1156 37.9871 83.5943 37.8859 84.0784 37.8859C84.5625 37.8859 85.0412 37.9871 85.4839 38.1829C85.9099 38.3749 86.2978 38.6422 86.6289 38.9719C87.1198 39.4653 87.4537 40.0928 87.5888 40.7756C87.7239 41.4583 87.654 42.1658 87.3879 42.8089Z" fill="#333333"/>
<path d="M108.524 36.027C107.781 35.3518 106.912 34.8307 105.966 34.494C103.934 33.7806 101.72 33.7806 99.6889 34.494C98.7428 34.8305 97.8729 35.3515 97.1299 36.027C96.4012 36.6988 95.819 37.5138 95.4199 38.421C95.0073 39.4107 94.7949 40.4723 94.7949 41.5445C94.7949 42.6167 95.0073 43.6783 95.4199 44.668C95.8175 45.5778 96.3998 46.3951 97.1299 47.068C97.8722 47.7442 98.7423 48.2651 99.6889 48.6C101.72 49.3146 103.935 49.3146 105.966 48.6C106.912 48.2648 107.782 47.744 108.524 47.068C109.254 46.3951 109.836 45.5778 110.234 44.668C110.646 43.6783 110.859 42.6167 110.859 41.5445C110.859 40.4723 110.646 39.4107 110.234 38.421C109.835 37.5138 109.253 36.6988 108.524 36.027ZM105.46 44.193C104.737 44.8439 103.799 45.204 102.827 45.204C101.854 45.204 100.916 44.8439 100.194 44.193C99.5866 43.4433 99.2552 42.5078 99.2552 41.543C99.2552 40.5782 99.5866 39.6427 100.194 38.893C100.916 38.2421 101.854 37.882 102.827 37.882C103.799 37.882 104.737 38.2421 105.46 38.893C106.067 39.6427 106.399 40.5782 106.399 41.543C106.399 42.5078 106.067 43.4433 105.46 44.193Z" fill="#333333"/>
<path d="M116.778 34.416H114.385V48.773H116.778V34.416Z" fill="#333333"/>
<path d="M115.582 27.054C115.35 27.0496 115.12 27.0937 114.906 27.1834C114.692 27.2731 114.499 27.4065 114.339 27.575C114.096 27.8203 113.93 28.1322 113.864 28.4712C113.798 28.8103 113.833 29.1615 113.966 29.4804C114.099 29.7993 114.323 30.0718 114.611 30.2634C114.898 30.4551 115.236 30.5574 115.582 30.5574C115.927 30.5574 116.265 30.4551 116.552 30.2634C116.84 30.0718 117.064 29.7993 117.197 29.4804C117.33 29.1615 117.365 28.8103 117.299 28.4712C117.233 28.1322 117.067 27.8203 116.824 27.575C116.665 27.4064 116.472 27.273 116.258 27.1832C116.044 27.0935 115.814 27.0495 115.582 27.054Z" fill="#333333"/>
<path d="M134.479 36.2003C133.806 35.513 132.996 34.9745 132.102 34.6193C131.121 34.2325 130.074 34.04 129.019 34.0523C128.025 34.0409 127.043 34.2618 126.15 34.6973C125.27 35.1347 124.492 35.7509 123.864 36.5063H123.8V34.4163H121.41V55.7683H123.8V46.2283H123.861C124.369 47.1033 125.109 47.8204 126 48.3003C127.034 48.8793 128.204 49.1707 129.389 49.1443C130.359 49.1505 131.32 48.9571 132.212 48.5763C133.073 48.2109 133.851 47.6732 134.497 46.9963C135.153 46.3045 135.669 45.4922 136.016 44.6043C136.752 42.6672 136.752 40.5274 136.016 38.5903C135.666 37.7004 135.143 36.8882 134.479 36.2003ZM133.635 43.7003C133.412 44.3254 133.063 44.8982 132.61 45.383C132.156 45.8679 131.609 46.2546 131 46.5193C129.654 47.0705 128.146 47.0705 126.8 46.5193C126.19 46.2547 125.642 45.8676 125.188 45.3822C124.734 44.8967 124.385 44.3233 124.162 43.6973C123.692 42.3367 123.692 40.8579 124.162 39.4973C124.385 38.8714 124.734 38.2979 125.188 37.8125C125.642 37.327 126.19 36.94 126.8 36.6753C128.146 36.1242 129.654 36.1242 131 36.6753C131.609 36.94 132.158 37.327 132.612 37.8125C133.066 38.2979 133.415 38.8714 133.638 39.4973C134.108 40.8579 134.108 42.3367 133.638 43.6973L133.635 43.7003Z" fill="#333333"/>
<path d="M148.622 41.6C148.168 41.26 147.661 40.9959 147.122 40.818C146.53 40.6184 145.926 40.4593 145.312 40.342C144.852 40.2634 144.397 40.1613 143.947 40.036C143.547 39.9272 143.156 39.7833 142.781 39.606C142.481 39.4697 142.209 39.2768 141.981 39.038C141.787 38.8244 141.683 38.5444 141.69 38.256C141.685 37.9448 141.776 37.6397 141.951 37.382C142.123 37.1275 142.348 36.913 142.61 36.753C142.891 36.5833 143.197 36.4591 143.516 36.385C143.843 36.304 144.179 36.2627 144.516 36.262C145.158 36.2421 145.791 36.4073 146.341 36.738C146.838 37.0504 147.253 37.476 147.553 37.98L149.547 36.661C149.105 35.7892 148.388 35.0878 147.506 34.666C146.618 34.2534 145.649 34.044 144.669 34.053C144.005 34.0514 143.344 34.1444 142.706 34.329C142.094 34.5034 141.514 34.7734 140.987 35.129C140.483 35.4694 140.063 35.9206 139.76 36.448C139.446 37.0097 139.287 37.6447 139.3 38.288C139.275 38.9177 139.418 39.5427 139.714 40.099C139.984 40.5643 140.361 40.9585 140.814 41.249C141.314 41.5643 141.856 41.807 142.424 41.97C143.038 42.154 143.682 42.3177 144.357 42.461C144.746 42.543 145.125 42.635 145.492 42.737C145.837 42.8295 146.167 42.9688 146.474 43.151C146.745 43.3115 146.979 43.5255 147.164 43.78C147.348 44.0619 147.44 44.3945 147.425 44.731C147.436 45.0846 147.34 45.4332 147.149 45.731C146.959 46.0133 146.707 46.2491 146.413 46.421C146.095 46.6106 145.748 46.7458 145.385 46.821C145.017 46.9018 144.642 46.9431 144.265 46.944C143.52 46.9729 142.781 46.792 142.133 46.422C141.537 46.0428 141.013 45.5614 140.584 45L138.684 46.473C139.272 47.3864 140.107 48.1145 141.092 48.573C142.102 48.9737 143.181 49.1668 144.267 49.141C144.974 49.1416 145.679 49.0594 146.367 48.896C147.022 48.7447 147.645 48.48 148.208 48.114C148.746 47.7568 149.192 47.277 149.508 46.714C149.852 46.0751 150.021 45.3571 150 44.632C150.019 44.0086 149.893 43.3893 149.632 42.823C149.394 42.3429 149.049 41.9244 148.622 41.6Z" fill="#333333"/>
<path d="M165.862 45.368V34.416H163.469V41.416C163.477 42.1707 163.389 42.9233 163.208 43.656C163.054 44.2841 162.783 44.8773 162.408 45.404C162.052 45.8937 161.576 46.2843 161.027 46.539C160.395 46.8196 159.709 46.9562 159.018 46.939C158.551 46.9768 158.081 46.9018 157.648 46.7203C157.216 46.5388 156.833 46.2561 156.533 45.896C155.958 45.0596 155.677 44.0563 155.733 43.043V34.416H153.34V43.282C153.333 44.0857 153.441 44.8862 153.662 45.659C153.854 46.3441 154.196 46.9782 154.662 47.516C155.128 48.0418 155.71 48.4525 156.362 48.716C157.139 49.0191 157.968 49.1653 158.801 49.146C159.362 49.1506 159.92 49.0727 160.458 48.915C160.943 48.7736 161.408 48.5674 161.838 48.302C162.229 48.0609 162.585 47.7668 162.896 47.428C163.175 47.1266 163.408 46.7851 163.587 46.415H163.648C163.648 46.825 163.658 47.225 163.679 47.615C163.7 48.005 163.71 48.3937 163.709 48.781H165.98C165.98 48.3097 165.959 47.788 165.918 47.216C165.877 46.644 165.858 46.028 165.862 45.368Z" fill="#333333"/>
<path d="M191.724 37.5609C191.564 36.8662 191.249 36.2167 190.803 35.6609C190.353 35.1232 189.772 34.71 189.116 34.4609C188.29 34.163 187.416 34.0225 186.539 34.0469C185.586 34.0053 184.644 34.257 183.839 34.7679C183.093 35.3032 182.466 35.9877 181.999 36.7779C181.876 36.5319 181.718 36.2506 181.523 35.9339C181.306 35.592 181.031 35.2908 180.71 35.0439C180.316 34.7443 179.877 34.5081 179.41 34.3439C178.782 34.133 178.123 34.0341 177.461 34.0519C176.901 34.0473 176.343 34.1251 175.805 34.2829C175.319 34.4244 174.855 34.6305 174.424 34.8959C174.033 35.1373 173.677 35.4314 173.366 35.7699C173.087 36.0713 172.854 36.4128 172.676 36.7829H172.614C172.614 36.3729 172.604 35.9749 172.584 35.5829C172.564 35.1909 172.553 34.8059 172.553 34.4169H170.283C170.283 34.8883 170.303 35.4099 170.344 35.9819C170.385 36.5539 170.405 37.1676 170.405 37.8229V48.7739H172.8V41.7799C172.792 41.0249 172.88 40.272 173.061 39.5389C173.214 38.9106 173.485 38.3172 173.861 37.7909C174.217 37.3011 174.692 36.9104 175.241 36.6559C175.873 36.3751 176.56 36.2385 177.251 36.2559C177.661 36.2209 178.072 36.295 178.444 36.4707C178.815 36.6463 179.134 36.9173 179.367 37.2559C179.881 38.3081 180.103 39.4786 180.012 40.6459V48.7759H182.4V40.4899C182.393 39.8994 182.492 39.3125 182.692 38.7569C182.869 38.2644 183.141 37.8113 183.492 37.4229C183.823 37.0594 184.225 36.7671 184.673 36.5639C185.126 36.3589 185.618 36.2542 186.115 36.2569C186.706 36.2355 187.294 36.3508 187.833 36.5939C188.258 36.7992 188.626 37.1051 188.906 37.4849C189.176 37.861 189.364 38.2891 189.459 38.7419C189.561 39.2157 189.613 39.6992 189.612 40.1839V48.7739H192V40.0609C192.009 39.2195 191.916 38.3801 191.724 37.5609Z" fill="#333333"/>
</g>
<defs>
<clipPath id="clip0_1525_8255">
<rect width="192" height="80" fill="white"/>
</clipPath>
</defs>
</svg>
